<?xml version="1.0" encoding="UTF-8"?>
<svg xmlns="http://www.w3.org/2000/svg" viewBox="-21.267 -19.71 66.533 39.421" width="66.533px" height="39.421px">
  <line id="bond:b3:line" data-bond="b3" x1="9.933" y1="0" x2="14.067" y2="0" stroke="#000000" stroke-width="1"/>
  <text id="atom:a1:label" data-atom="a1" x="-8.333" y="5.733" font-family="Arimo, Arial, Helvetica, sans-serif" font-size="16.667" fill="#000000" text-anchor="start"><tspan>Br</tspan></text>
  <circle id="atom:a1:lonepair:0:0" data-atom="a1" cx="-11.6" cy="2.167" r="1.667" fill="#000000"/>
  <circle id="atom:a1:lonepair:0:1" data-atom="a1" cx="-11.6" cy="-2.167" r="1.667" fill="#000000"/>
  <circle id="atom:a1:lonepair:1:0" data-atom="a1" cx="-10.044" cy="-6.98" r="1.667" fill="#000000"/>
  <circle id="atom:a1:lonepair:1:1" data-atom="a1" cx="-6.98" cy="-10.044" r="1.667" fill="#000000"/>
  <circle id="atom:a1:lonepair:2:0" data-atom="a1" cx="-6.98" cy="10.044" r="1.667" fill="#000000"/>
  <circle id="atom:a1:lonepair:2:1" data-atom="a1" cx="-10.044" cy="6.98" r="1.667" fill="#000000"/>
  <text id="atom:a2:label" data-atom="a2" x="15.667" y="5.733" font-family="Arimo, Arial, Helvetica, sans-serif" font-size="16.667" fill="#000000" text-anchor="start"><tspan>Br</tspan></text>
  <circle id="atom:a2:lonepair:0:0" data-atom="a2" cx="35.6" cy="-2.167" r="1.667" fill="#000000"/>
  <circle id="atom:a2:lonepair:0:1" data-atom="a2" cx="35.6" cy="2.167" r="1.667" fill="#000000"/>
  <circle id="atom:a2:lonepair:1:0" data-atom="a2" cx="30.98" cy="-10.044" r="1.667" fill="#000000"/>
  <circle id="atom:a2:lonepair:1:1" data-atom="a2" cx="34.044" cy="-6.98" r="1.667" fill="#000000"/>
  <circle id="atom:a2:lonepair:2:0" data-atom="a2" cx="34.044" cy="6.98" r="1.667" fill="#000000"/>
  <circle id="atom:a2:lonepair:2:1" data-atom="a2" cx="30.98" cy="10.044" r="1.667" fill="#000000"/>
  <path id="annotation:ann_1:shaft" data-annotation="ann_1" d="M12 0 C13.415 -4.128 11.635 -6.735 9.016 -7.82" fill="none" stroke="#000000" stroke-width="1"/>
  <polygon id="annotation:ann_1:head" data-annotation="ann_1" points="2.032,-7.333 10.043,-9.292 9.032,-7.297" fill="#000000"/>
  <path id="annotation:ann_2:shaft" data-annotation="ann_2" d="M12 0 C10.585 -4.128 12.365 -6.735 14.984 -7.82" fill="none" stroke="#000000" stroke-width="1"/>
  <polygon id="annotation:ann_2:head" data-annotation="ann_2" points="21.968,-7.333 13.957,-9.292 14.968,-7.297" fill="#000000"/>
</svg>