<?xml version="1.0" encoding="UTF-8"?>
<svg xmlns="http://www.w3.org/2000/svg" viewBox="-35.266 -53.355 186.491 94.62" width="186.491px" height="94.62px">
  <line id="bond:b13:line" data-bond="b13" x1="-12.702" y1="-9.759" x2="1.05" y2="-1.819" stroke="#000000" stroke-width="1"/>
  <line id="bond:b13:line2" data-bond="b13" x1="-12.702" y1="-4.909" x2="-1.05" y2="1.819" stroke="#000000" stroke-width="1"/>
  <line id="bond:b14:line" data-bond="b14" x1="0" y1="0" x2="20.784" y2="-12" stroke="#000000" stroke-width="1"/>
  <polygon id="bond:b15:wedge" data-bond="b15" points="20.784,-12 18.684,-28.667 22.884,-28.667" fill="#000000"/>
  <line id="bond:b16:line" data-bond="b16" x1="20.784" y1="-12" x2="41.57" y2="0" stroke="#000000" stroke-width="1"/>
  <polygon id="bond:b17:wedge" data-bond="b17" points="41.57,0 43.67,16.667 39.47,16.667" fill="#000000"/>
  <line id="bond:b18:line" data-bond="b18" x1="41.57" y1="0" x2="62.354" y2="-12" stroke="#000000" stroke-width="1"/>
  <polygon id="bond:b19:wedge" data-bond="b19" points="62.354,-12 60.254,-28.667 64.454,-28.667" fill="#000000"/>
  <line id="bond:b20:line" data-bond="b20" x1="62.354" y1="-12" x2="83.139" y2="0" stroke="#000000" stroke-width="1"/>
  <path id="bond:b21:hash" data-bond="b21" d="M83.559 0 L82.719 0 M83.839 2.778 L82.439 2.778 M84.119 5.556 L82.159 5.556 M84.399 8.333 L81.879 8.333 M84.679 11.111 L81.599 11.111 M84.959 13.889 L81.319 13.889 M85.239 16.667 L81.039 16.667" fill="none" stroke="#000000" stroke-width="1"/>
  <line id="bond:b22:line" data-bond="b22" x1="83.139" y1="0" x2="103.923" y2="-12" stroke="#000000" stroke-width="1"/>
  <line id="bond:b23:line" data-bond="b23" x1="103.923" y1="-12" x2="116.625" y2="-4.666" stroke="#000000" stroke-width="1"/>
  <text id="atom:a1:label" data-atom="a1" x="-27.266" y="-6.267" font-family="Arimo, Arial, Helvetica, sans-serif" font-size="16.667" fill="#000000" text-anchor="start"><tspan>O</tspan></text>
  <circle id="atom:a2:dot" data-atom="a2" cx="0" cy="0" r="0.9" fill="#000000"/>
  <circle id="atom:a3:dot" data-atom="a3" cx="20.784" cy="-12" r="0.9" fill="#000000"/>
  <text id="atom:a4:label" data-atom="a4" x="14.302" y="-30.267" font-family="Arimo, Arial, Helvetica, sans-serif" font-size="16.667" fill="#000000" text-anchor="start"><tspan>O</tspan><tspan>H</tspan></text>
  <circle id="atom:a5:dot" data-atom="a5" cx="41.57" cy="0" r="0.9" fill="#000000"/>
  <text id="atom:a6:label" data-atom="a6" x="35.088" y="29.733" font-family="Arimo, Arial, Helvetica, sans-serif" font-size="16.667" fill="#000000" text-anchor="start"><tspan>O</tspan><tspan>H</tspan></text>
  <circle id="atom:a7:dot" data-atom="a7" cx="62.354" cy="-12" r="0.9" fill="#000000"/>
  <text id="atom:a8:label" data-atom="a8" x="55.872" y="-30.267" font-family="Arimo, Arial, Helvetica, sans-serif" font-size="16.667" fill="#000000" text-anchor="start"><tspan>O</tspan><tspan>H</tspan></text>
  <circle id="atom:a9:dot" data-atom="a9" cx="83.139" cy="0" r="0.9" fill="#000000"/>
  <text id="atom:a10:label" data-atom="a10" x="76.657" y="29.733" font-family="Arimo, Arial, Helvetica, sans-serif" font-size="16.667" fill="#000000" text-anchor="start"><tspan>O</tspan><tspan>H</tspan></text>
  <circle id="atom:a11:dot" data-atom="a11" cx="103.923" cy="-12" r="0.9" fill="#000000"/>
  <text id="atom:a12:label" data-atom="a12" x="118.225" y="5.733" font-family="Arimo, Arial, Helvetica, sans-serif" font-size="16.667" fill="#000000" text-anchor="start"><tspan>O</tspan><tspan>H</tspan></text>
  <text id="atom:a3:descriptor" data-atom="a3" x="20.784" y="8.009" font-family="Arimo, Arial, Helvetica, sans-serif" font-size="13.333" fill="#000000" text-anchor="middle"><tspan>(S)</tspan></text>
  <text id="atom:a5:descriptor" data-atom="a5" x="41.57" y="-10.764" font-family="Arimo, Arial, Helvetica, sans-serif" font-size="13.333" fill="#000000" text-anchor="middle"><tspan>(R)</tspan></text>
  <text id="atom:a7:descriptor" data-atom="a7" x="62.354" y="8.009" font-family="Arimo, Arial, Helvetica, sans-serif" font-size="13.333" fill="#000000" text-anchor="middle"><tspan>(S)</tspan></text>
  <text id="atom:a9:descriptor" data-atom="a9" x="83.139" y="-10.764" font-family="Arimo, Arial, Helvetica, sans-serif" font-size="13.333" fill="#000000" text-anchor="middle"><tspan>(S)</tspan></text>
</svg>