<?xml version="1.0" encoding="UTF-8"?>
<svg xmlns="http://www.w3.org/2000/svg" viewBox="-39.687 -29.684 225.985 176.617" width="225.985px" height="176.617px">
  <polygon id="bond:b28:wedge" data-bond="b28" points="79.801,120.714 85.286,136.42 81.178,137.293" fill="#000000"/>
  <line id="bond:b29:line" data-bond="b29" x1="86.386" y1="106.048" x2="96.077" y2="97.322" stroke="#000000" stroke-width="1"/>
  <line id="bond:b30:line" data-bond="b30" x1="96.077" y1="97.322" x2="118.903" y2="104.738" stroke="#000000" stroke-width="1"/>
  <line id="bond:b31:line" data-bond="b31" x1="118.903" y1="104.738" x2="136.738" y2="88.679" stroke="#000000" stroke-width="1"/>
  <line id="bond:b32:line" data-bond="b32" x1="136.738" y1="88.679" x2="159.563" y2="96.095" stroke="#000000" stroke-width="1"/>
  <line id="bond:b33:line" data-bond="b33" x1="159.563" y1="96.095" x2="177.399" y2="80.036" stroke="#000000" stroke-width="1"/>
  <line id="bond:b34:line" data-bond="b34" x1="159.563" y1="96.095" x2="164.554" y2="119.57" stroke="#000000" stroke-width="1"/>
  <line id="bond:b35:line" data-bond="b35" x1="70.624" y1="110.905" x2="55.416" y2="105.964" stroke="#000000" stroke-width="1"/>
  <line id="bond:b36:line" data-bond="b36" x1="55.416" y1="105.964" x2="36" y2="120.07" stroke="#000000" stroke-width="1"/>
  <line id="bond:b37:line" data-bond="b37" x1="36" y1="120.07" x2="16.584" y2="105.964" stroke="#000000" stroke-width="1"/>
  <line id="bond:b38:line" data-bond="b38" x1="24" y1="83.138" x2="16.584" y2="105.964" stroke="#000000" stroke-width="1"/>
  <line id="bond:b39:line" data-bond="b39" x1="24" y1="83.138" x2="48" y2="83.138" stroke="#000000" stroke-width="1"/>
  <line id="bond:b40:line" data-bond="b40" x1="48" y1="83.138" x2="60" y2="62.354" stroke="#000000" stroke-width="1"/>
  <line id="bond:b41:line" data-bond="b41" x1="60" y1="62.354" x2="48" y2="41.569" stroke="#000000" stroke-width="1"/>
  <line id="bond:b42:line" data-bond="b42" x1="24" y1="41.569" x2="48" y2="41.569" stroke="#000000" stroke-width="1"/>
  <line id="bond:b43:line" data-bond="b43" x1="24" y1="41.569" x2="12" y2="62.354" stroke="#000000" stroke-width="1"/>
  <line id="bond:b44:line" data-bond="b44" x1="12" y1="62.354" x2="-12" y2="62.354" stroke="#000000" stroke-width="1"/>
  <line id="bond:b45:line" data-bond="b45" x1="-12" y1="62.354" x2="-24" y2="41.569" stroke="#000000" stroke-width="1"/>
  <line id="bond:b46:line" data-bond="b46" x1="-12" y1="20.785" x2="-24" y2="41.569" stroke="#000000" stroke-width="1"/>
  <line id="bond:b47:line" data-bond="b47" x1="-12" y1="20.785" x2="12" y2="20.785" stroke="#000000" stroke-width="1"/>
  <line id="bond:b48:line" data-bond="b48" x1="12" y1="20.785" x2="24" y2="0" stroke="#000000" stroke-width="1"/>
  <line id="bond:b49:line" data-bond="b49" x1="24" y1="0" x2="12" y2="-20.784" stroke="#000000" stroke-width="1"/>
  <line id="bond:b50:line" data-bond="b50" x1="12" y1="-20.784" x2="-12" y2="-20.784" stroke="#000000" stroke-width="1"/>
  <line id="bond:b51:line" data-bond="b51" x1="-12" y1="-20.784" x2="-24" y2="0" stroke="#000000" stroke-width="1"/>
  <polygon id="bond:b52:wedge" data-bond="b52" points="12,20.785 36,18.685 36,22.885" fill="#000000"/>
  <polygon id="bond:b53:wedge" data-bond="b53" points="48,83.138 72.088,83.557 71.649,87.734" fill="#000000"/>
  <line id="bond:b54:line" data-bond="b54" x1="48" y1="83.138" x2="55.416" y2="105.964" stroke="#000000" stroke-width="1"/>
  <line id="bond:b55:line" data-bond="b55" x1="12" y1="62.354" x2="24" y2="83.138" stroke="#000000" stroke-width="1"/>
  <line id="bond:b56:line" data-bond="b56" x1="12" y1="20.785" x2="24" y2="41.569" stroke="#000000" stroke-width="1"/>
  <line id="bond:b57:line" data-bond="b57" x1="-24" y1="0" x2="-12" y2="20.785" stroke="#000000" stroke-width="1"/>
  <circle id="atom:a1:dot" data-atom="a1" cx="83.232" cy="136.856" r="0.9" fill="#000000"/>
  <text id="atom:a2:label" data-atom="a2" x="72.224" y="119.114" font-family="Arimo, Arial, Helvetica, sans-serif" font-size="16.667" fill="#000000" text-anchor="start"><tspan>C</tspan><tspan>H</tspan></text>
  <circle id="atom:a3:dot" data-atom="a3" cx="96.077" cy="97.322" r="0.9" fill="#000000"/>
  <circle id="atom:a4:dot" data-atom="a4" cx="118.903" cy="104.738" r="0.9" fill="#000000"/>
  <circle id="atom:a5:dot" data-atom="a5" cx="136.738" cy="88.679" r="0.9" fill="#000000"/>
  <circle id="atom:a6:dot" data-atom="a6" cx="159.563" cy="96.095" r="0.9" fill="#000000"/>
  <circle id="atom:a7:dot" data-atom="a7" cx="177.399" cy="80.036" r="0.9" fill="#000000"/>
  <circle id="atom:a8:dot" data-atom="a8" cx="164.554" cy="119.57" r="0.9" fill="#000000"/>
  <circle id="atom:a9:dot" data-atom="a9" cx="55.416" cy="105.964" r="0.9" fill="#000000"/>
  <circle id="atom:a10:dot" data-atom="a10" cx="36" cy="120.07" r="0.9" fill="#000000"/>
  <circle id="atom:a11:dot" data-atom="a11" cx="16.584" cy="105.964" r="0.9" fill="#000000"/>
  <circle id="atom:a12:dot" data-atom="a12" cx="24" cy="83.138" r="0.9" fill="#000000"/>
  <circle id="atom:a13:dot" data-atom="a13" cx="48" cy="83.138" r="0.9" fill="#000000"/>
  <circle id="atom:a14:dot" data-atom="a14" cx="60" cy="62.354" r="0.9" fill="#000000"/>
  <circle id="atom:a15:dot" data-atom="a15" cx="48" cy="41.569" r="0.9" fill="#000000"/>
  <circle id="atom:a16:dot" data-atom="a16" cx="24" cy="41.569" r="0.9" fill="#000000"/>
  <circle id="atom:a17:dot" data-atom="a17" cx="12" cy="62.354" r="0.9" fill="#000000"/>
  <circle id="atom:a18:dot" data-atom="a18" cx="-12" cy="62.354" r="0.9" fill="#000000"/>
  <circle id="atom:a19:dot" data-atom="a19" cx="-24" cy="41.569" r="0.9" fill="#000000"/>
  <circle id="atom:a20:dot" data-atom="a20" cx="-12" cy="20.785" r="0.9" fill="#000000"/>
  <circle id="atom:a21:dot" data-atom="a21" cx="12" cy="20.785" r="0.9" fill="#000000"/>
  <circle id="atom:a22:dot" data-atom="a22" cx="24" cy="0" r="0.9" fill="#000000"/>
  <circle id="atom:a23:dot" data-atom="a23" cx="12" cy="-20.784" r="0.9" fill="#000000"/>
  <circle id="atom:a24:dot" data-atom="a24" cx="-12" cy="-20.784" r="0.9" fill="#000000"/>
  <circle id="atom:a25:dot" data-atom="a25" cx="-24" cy="0" r="0.9" fill="#000000"/>
  <circle id="atom:a26:dot" data-atom="a26" cx="36" cy="20.785" r="0.9" fill="#000000"/>
  <circle id="atom:a27:dot" data-atom="a27" cx="71.869" cy="85.645" r="0.9" fill="#000000"/>
  <path id="projected:a9.H:hash" data-projected-node="a9.H" data-projected-atoms="a9" d="M55.831 105.898 L55.001 106.029 M56.54 108.583 L55.157 108.802 M57.248 111.267 L55.312 111.574 M57.957 113.952 L55.468 114.346 M58.666 116.637 L55.624 117.119 M59.374 119.322 L55.779 119.891 M60.083 122.006 L55.935 122.663" fill="none" stroke="#000000" stroke-width="1"/>
  <text id="projected:a9.H:label" data-projected-node="a9.H" data-projected-atoms="a9" x="53.152" y="135.401" font-family="Arimo, Arial, Helvetica, sans-serif" font-size="16.667" fill="#000000" text-anchor="start"><tspan>H</tspan></text>
  <path id="projected:a12.H:hash" data-projected-node="a12.H" data-projected-atoms="a12" d="M24.044 83.556 L23.956 82.721 M20.829 84.232 L20.671 82.728 M17.614 84.908 L17.386 82.735 M14.399 85.583 L14.1 82.743 M11.184 86.259 L10.815 82.75 M7.969 86.935 L7.53 82.758" fill="none" stroke="#000000" stroke-width="1"/>
  <text id="projected:a12.H:label" data-projected-node="a12.H" data-projected-atoms="a12" x="-5.887" y="91.38" font-family="Arimo, Arial, Helvetica, sans-serif" font-size="16.667" fill="#000000" text-anchor="start"><tspan>H</tspan></text>
  <path id="projected:a16.H:hash" data-projected-node="a16.H" data-projected-atoms="a16" d="M24.364 41.359 L23.636 41.779 M26.208 43.882 L24.898 44.638 M28.052 46.404 L26.161 47.496 M29.896 48.926 L27.423 50.354 M31.741 51.448 L28.685 53.212 M33.585 53.971 L29.947 56.071" fill="none" stroke="#000000" stroke-width="1"/>
  <text id="projected:a16.H:label" data-projected-node="a16.H" data-projected-atoms="a16" x="29.982" y="68.087" font-family="Arimo, Arial, Helvetica, sans-serif" font-size="16.667" fill="#000000" text-anchor="start"><tspan>H</tspan></text>
  <polygon id="projected:a17.H:wedge" data-projected-node="a17.H" data-projected-atoms="a17" points="12,62.354 2.415,49.953 6.053,47.853" fill="#000000"/>
  <text id="projected:a17.H:label" data-projected-node="a17.H" data-projected-atoms="a17" x="-6.018" y="47.303" font-family="Arimo, Arial, Helvetica, sans-serif" font-size="16.667" fill="#000000" text-anchor="start"><tspan>H</tspan></text>
  <polygon id="projected:a20.H:wedge" data-projected-node="a20.H" data-projected-atoms="a20" points="-12,20.785 -6.052,6.284 -2.415,8.384" fill="#000000"/>
  <text id="projected:a20.H:label" data-projected-node="a20.H" data-projected-atoms="a20" x="-6.018" y="5.734" font-family="Arimo, Arial, Helvetica, sans-serif" font-size="16.667" fill="#000000" text-anchor="start"><tspan>H</tspan></text>
  <text id="atom:a9:descriptor" data-atom="a9" x="59.549" y="100.608" font-family="Arimo, Arial, Helvetica, sans-serif" font-size="13.333" fill="#000000" text-anchor="middle"><tspan>(R)</tspan></text>
  <text id="atom:a12:descriptor" data-atom="a12" x="34.069" y="97.83" font-family="Arimo, Arial, Helvetica, sans-serif" font-size="13.333" fill="#000000" text-anchor="middle"><tspan>(S)</tspan></text>
  <text id="atom:a13:descriptor" data-atom="a13" x="52.133" y="77.783" font-family="Arimo, Arial, Helvetica, sans-serif" font-size="13.333" fill="#000000" text-anchor="middle"><tspan>(R)</tspan></text>
  <text id="atom:a16:descriptor" data-atom="a16" x="28.133" y="36.214" font-family="Arimo, Arial, Helvetica, sans-serif" font-size="13.333" fill="#000000" text-anchor="middle"><tspan>(S)</tspan></text>
  <text id="atom:a17:descriptor" data-atom="a17" x="3.552" y="75.424" font-family="Arimo, Arial, Helvetica, sans-serif" font-size="13.333" fill="#000000" text-anchor="middle"><tspan>(R)</tspan></text>
  <text id="atom:a20:descriptor" data-atom="a20" x="-22.8" y="25.407" font-family="Arimo, Arial, Helvetica, sans-serif" font-size="13.333" fill="#000000" text-anchor="middle"><tspan>(S)</tspan></text>
  <text id="atom:a21:descriptor" data-atom="a21" x="16.133" y="15.429" font-family="Arimo, Arial, Helvetica, sans-serif" font-size="13.333" fill="#000000" text-anchor="middle"><tspan>(S)</tspan></text>
</svg>